<svg width="382" height="366" xmlns="http://www.w3.org/2000/svg" xmlns:xlink="http://www.w3.org/1999/xlink" overflow="hidden"><defs><clipPath id="clip0"><rect x="1926" y="1047" width="382" height="366"/></clipPath><clipPath id="clip1"><rect x="1932" y="1058" width="370" height="345"/></clipPath><clipPath id="clip2"><rect x="1932" y="1058" width="370" height="345"/></clipPath></defs><g clip-path="url(#clip0)" transform="translate(-1926 -1047)"><path d="M1926 1075.31C1926 1059.68 1938.68 1047 1954.31 1047L2279.69 1047C2295.32 1047 2308 1059.68 2308 1075.31L2308 1384.69C2308 1400.32 2295.32 1413 2279.69 1413L1954.31 1413C1938.68 1413 1926 1400.32 1926 1384.69Z" fill="#428B4E" fill-rule="evenodd"/><g clip-path="url(#clip1)"><g clip-path="url(#clip2)"><path d="M260.773 129.661C260.981 134.64 261.188 139.619 261.188 144.598L257.454 144.598C257.662 139.619 257.869 134.64 257.869 129.661L228.618 129.661C209.117 216.17 189.616 302.472 169.907 388.982L248.741 388.982C248.948 384.21 249.156 379.439 249.156 374.875L268.864 374.875C269.072 379.646 269.279 384.418 269.279 388.982L348.113 388.982C328.612 302.472 309.111 216.17 289.403 129.661L260.773 129.661ZM251.23 324.255C251.645 310.148 252.268 296.041 252.683 282.142L265.96 282.142C266.375 296.249 266.997 310.356 267.412 324.255L251.23 324.255ZM262.848 189.201C263.263 202.063 263.678 214.718 264.093 227.58L254.55 227.58C254.965 214.718 255.38 202.063 255.795 189.201L262.848 189.201Z" fill="#FFFFFF" transform="matrix(1.00066 0 0 1 1862.35 968.285)"/><path d="M301.435 129.661 291.892 129.661C315.542 216.17 339.4 302.472 363.05 388.982L388.774 388.982C359.73 302.472 330.687 216.17 301.435 129.661Z" fill="#FFFFFF" transform="matrix(1.00066 0 0 1 1862.35 968.285)"/><path d="M217.208 129.661C187.956 216.17 158.912 302.472 129.661 388.982L155.385 388.982C179.035 302.472 202.893 216.17 226.543 129.661L217.208 129.661Z" fill="#FFFFFF" transform="matrix(1.00066 0 0 1 1862.35 968.285)"/></g></g></g></svg>